<svg xmlns="http://www.w3.org/2000/svg" xmlns:xlink="http://www.w3.org/1999/xlink" width="256" zoomAndPan="magnify" viewBox="0 0 192 191.999996" height="256" preserveAspectRatio="xMidYMid meet" version="1.0"><defs><clipPath id="782c33bc97"><path d="M 131.441406 14.898438 C 134.246094 13.671875 137.894531 17.472656 141.425781 18.355469 C 144.34375 19.085938 148.953125 16.664062 151.988281 18.46875 C 154.714844 20.082031 155.019531 25.34375 157.59375 27.53125 C 160.089844 29.644531 165.3125 29.144531 167.425781 31.601562 C 169.613281 34.175781 168.269531 39.246094 169.882812 41.933594 C 171.6875 44.964844 176.753906 46.503906 177.484375 49.460938 C 178.367188 52.992188 174.488281 55.988281 173.222656 58.789062 C 172.03125 61.476562 172.414062 66.433594 168.730469 67.929688 C 172.378906 66.433594 174.066406 66.394531 176.792969 67.46875 C 179.671875 68.582031 184.511719 67.96875 186.394531 71.078125 C 187.929688 73.652344 185.433594 78.335938 186.316406 81.753906 C 187.085938 84.789062 191.65625 87.4375 191.886719 90.816406 C 192.113281 94.078125 188.042969 97.421875 187.8125 100.683594 C 187.546875 104.0625 191.039062 108.019531 190.273438 111.054688 C 189.390625 114.46875 184.433594 116.042969 182.898438 118.617188 C 181.019531 121.726562 181.132812 127.027344 178.253906 128.140625 C 175.488281 129.214844 172.339844 125.375 168.691406 123.878906 C 172.339844 125.375 175.71875 128.679688 176.910156 131.40625 C 178.136719 134.207031 174.335938 137.855469 173.453125 141.390625 C 172.722656 144.308594 175.140625 148.914062 173.335938 151.949219 C 171.726562 154.675781 166.464844 154.980469 164.273438 157.554688 C 162.164062 160.050781 162.664062 165.273438 160.203125 167.386719 C 157.632812 169.574219 152.5625 168.230469 149.875 169.84375 C 146.839844 171.648438 145.265625 176.714844 142.347656 177.445312 C 138.816406 178.328125 135.820312 174.453125 133.019531 173.183594 C 130.328125 171.992188 125.375 172.378906 123.878906 168.691406 C 125.375 172.339844 125.414062 174.027344 124.339844 176.753906 C 123.226562 179.636719 123.839844 184.472656 120.730469 186.355469 C 118.15625 187.890625 113.472656 185.394531 110.054688 186.277344 C 107.019531 187.046875 104.371094 191.617188 100.992188 191.847656 C 97.726562 192.078125 94.386719 188.007812 91.160156 187.777344 C 87.78125 187.507812 83.828125 191 80.792969 190.234375 C 77.375 189.351562 75.800781 184.398438 73.230469 182.859375 C 70.117188 180.980469 64.820312 181.09375 63.707031 178.214844 C 62.628906 175.449219 66.46875 172.300781 67.96875 168.652344 C 66.46875 172.300781 63.167969 175.679688 60.441406 176.871094 C 57.636719 178.097656 53.992188 174.296875 50.417969 173.414062 C 47.5 172.683594 42.894531 175.105469 39.859375 173.300781 C 37.132812 171.6875 36.824219 166.425781 34.253906 164.238281 C 31.757812 162.125 26.535156 162.625 24.421875 160.167969 C 22.234375 157.59375 23.578125 152.523438 21.964844 149.835938 C 20.160156 146.804688 15.089844 145.230469 14.363281 142.308594 C 13.476562 138.777344 17.355469 135.78125 18.625 132.980469 C 19.8125 130.292969 19.46875 125.335938 23.117188 123.839844 C 19.46875 125.335938 17.777344 125.375 15.054688 124.300781 C 12.171875 123.1875 7.335938 123.800781 5.453125 120.691406 C 3.878906 118.117188 6.414062 113.433594 5.53125 110.015625 C 4.722656 106.980469 0.191406 104.332031 -0.0390625 100.953125 C -0.269531 97.691406 3.761719 94.347656 4.03125 91.125 C 4.300781 87.742188 0.804688 83.789062 1.574219 80.753906 C 2.457031 77.335938 7.410156 75.761719 8.945312 73.191406 C 10.828125 70.078125 10.714844 64.78125 13.59375 63.667969 C 16.359375 62.59375 19.507812 66.433594 23.15625 67.929688 C 19.507812 66.433594 16.128906 63.128906 14.9375 60.402344 C 13.707031 57.601562 17.511719 53.953125 18.394531 50.378906 C 19.125 47.460938 16.703125 42.855469 18.507812 39.820312 C 20.082031 37.210938 25.34375 36.863281 27.570312 34.292969 C 29.683594 31.796875 29.183594 26.574219 31.640625 24.460938 C 34.214844 22.273438 39.28125 23.617188 41.972656 22.003906 C 45.003906 20.199219 46.539062 15.128906 49.496094 14.398438 C 53.03125 13.515625 56.027344 17.394531 58.828125 18.664062 C 61.515625 19.851562 66.46875 19.507812 67.96875 23.15625 C 66.46875 19.507812 66.433594 17.816406 67.507812 15.089844 C 68.621094 12.210938 68.007812 7.371094 71.117188 5.492188 C 73.691406 3.917969 78.375 6.453125 81.792969 5.566406 C 84.824219 4.761719 87.476562 0.230469 90.855469 0 C 94.117188 -0.230469 97.460938 3.800781 100.722656 4.070312 C 104.101562 4.339844 108.058594 0.84375 111.089844 1.613281 C 114.507812 2.496094 116.082031 7.449219 118.65625 8.984375 C 121.765625 10.867188 127.066406 10.753906 128.179688 13.632812 C 129.253906 16.398438 125.414062 19.546875 123.917969 23.195312 C 125.414062 19.46875 128.714844 16.089844 131.441406 14.898438 Z M 131.441406 14.898438 " clip-rule="nonzero"/></clipPath></defs><g clip-path="url(#782c33bc97)"><rect x="-19.2" width="230.4" fill="currentColor" y="-19.2" height="230.399995" fill-opacity="1"/></g></svg>